<svg width="2028" height="334" viewBox="0 0 2028 334" fill="none" xmlns="http://www.w3.org/2000/svg">
<path d="M183.38 96.9463C173.627 131.525 153.391 161.445 135.96 192.489C113.37 232.721 96.7683 275.73 79.0559 318.24" stroke="black" stroke-width="30" stroke-linecap="round"/>
<path d="M15.8291 144.366C45.5823 114.613 107.787 102.397 147.551 95.541C191.4 87.9809 296.371 61.346 295.783 134.882C295.277 198.108 229.307 247.915 180.219 276.791C151.59 293.631 116.63 315.078 82.2172 315.078" stroke="black" stroke-width="30" stroke-linecap="round"/>
<path d="M376.221 115.914C361.785 116.763 348.879 137.814 339.69 147.528C326.493 161.479 323.199 186.852 320.02 205.134C315.755 229.657 320.094 290.073 352.336 295.935C364.94 298.226 389.426 285.017 398.175 277.142C414.742 262.232 425.349 248.451 431.369 226.561C442.784 185.051 443.843 142.438 414.158 112.753" stroke="black" stroke-width="30" stroke-linecap="round"/>
<path d="M508.997 115.914C507.562 130.269 498.86 147.741 494.596 161.753C490.564 175.001 489.077 187.803 486.166 201.27C478.55 236.49 467.115 270.797 458.416 305.594" stroke="black" stroke-width="30" stroke-linecap="round"/>
<path d="M512.159 131.721C512.159 150.122 523.229 169.458 527.965 187.22C531.72 201.299 538.168 219.934 545.353 232.708C550.515 241.886 555.867 251.881 558.876 262.038C561.399 270.554 560.076 285.294 569.063 289.788" stroke="black" stroke-width="30" stroke-linecap="round"/>
<path d="M606.999 109.591C605.066 132.785 595.779 161.054 589.436 183.707C584.869 200.016 582.736 216.929 579.249 233.586C575.626 250.899 572.224 265.809 572.224 283.465" stroke="black" stroke-width="30" stroke-linecap="round"/>
<path d="M695.516 128.56C668.632 185.316 656.563 247.36 625.967 302.433" stroke="black" stroke-width="30" stroke-linecap="round"/>
<path d="M701.839 100.107C701.839 167.579 721.946 233.139 742.937 296.11" stroke="black" stroke-width="30" stroke-linecap="round"/>
<path d="M654.419 239.206C688.309 239.206 721.739 240.487 755.582 242.367" stroke="black" stroke-width="30" stroke-linecap="round"/>
<path d="M777.711 147.528C799.376 166.785 829.734 173.691 856.745 169.833C869.544 168.004 888.448 169.166 896.262 157.012C906.316 141.371 907.326 131.486 907.326 112.929C907.326 90.3152 881.256 64.7893 864.648 90.6235C846.336 119.109 858.37 149.044 863.243 180.722C868.788 216.762 861.16 248.33 843.397 280.304C839.195 287.867 818.528 300.748 810.027 292.247C802.287 284.507 799.261 259.704 799.841 248.69C801.822 211.052 853.975 260.322 863.068 269.415C874.859 281.207 889.103 299.605 904.165 307.351C917.631 314.276 954.886 325.933 964.23 311.917" stroke="black" stroke-width="30" stroke-linecap="round"/>
<path d="M1005.33 96.9463C994.892 108.542 991.75 125.362 982.496 138.044C968.644 157.026 961.995 179.686 953.165 201.27C946.275 218.114 932.617 270.05 932.617 251.852" stroke="black" stroke-width="30" stroke-linecap="round"/>
<path d="M999.005 109.591C1025.6 110.991 1061.52 113.333 1078.04 137.516C1099.04 168.265 1091.9 203.215 1066.1 229.02C1049.46 245.659 1018.09 261.335 994.087 261.335C986.798 261.335 954.058 269.444 951.584 264.497" stroke="black" stroke-width="30" stroke-linecap="round"/>
<path d="M1167.34 81.1503C1271.38 76.9888 1375.12 67.4648 1479.37 67.4648" stroke="black" stroke-width="30" stroke-linecap="round"/>
<path d="M1315.14 15.46C1315.14 76.7956 1314.37 137.497 1309.67 198.693C1307.56 226.124 1304 273.612 1284.88 294.643C1278.21 301.98 1268.65 316.631 1257.05 313.194C1239.26 307.921 1231.85 303.774 1217.82 291.754C1203.43 279.422 1200.18 252.124 1200.18 234.427" stroke="black" stroke-width="30" stroke-linecap="round"/>
<path d="M1358.93 133.155C1358.93 159.842 1364.41 186.028 1364.41 212.834C1364.41 242.841 1364.41 272.848 1364.41 302.854" stroke="black" stroke-width="30" stroke-linecap="round"/>
<path d="M1356.2 135.892C1380.13 135.892 1403.49 133.155 1427.36 133.155" stroke="black" stroke-width="30" stroke-linecap="round"/>
<path d="M1369.88 220.741C1380.36 220.741 1389.94 218.004 1399.99 218.004" stroke="black" stroke-width="30" stroke-linecap="round"/>
<path d="M1364.41 302.854C1389.07 301.556 1413.43 300.117 1438.31 300.117" stroke="black" stroke-width="30" stroke-linecap="round"/>
<path d="M1471.15 135.892C1471.15 150.128 1477.24 167.239 1482.71 180.294C1490.17 198.072 1493.03 217.055 1501.26 234.427C1512.37 257.884 1514.47 287.077 1528.63 308.329" stroke="black" stroke-width="30" stroke-linecap="round"/>
<path d="M1558.74 218.004C1547.47 229.275 1547.6 252.131 1542.93 266.664C1539.58 277.079 1531.37 289.19 1531.37 300.117" stroke="black" stroke-width="30" stroke-linecap="round"/>
<path d="M1564.22 228.953C1567.6 235.044 1574.87 239.673 1577.29 245.984C1579.98 252.97 1581.44 261.923 1584.9 268.337C1589.54 276.968 1595.47 285.987 1599.8 294.643" stroke="black" stroke-width="30" stroke-linecap="round"/>
<path d="M1613.48 122.207C1613.48 133.998 1608.97 144.872 1608.16 156.572C1606.61 179.12 1605.27 202.081 1605.27 224.695C1605.27 235.845 1605.46 246.003 1607.4 256.932C1609.96 271.34 1605.3 286.5 1610.75 300.117" stroke="black" stroke-width="30" stroke-linecap="round"/>
<path d="M1662.75 116.732C1662.75 152.75 1663.14 190.717 1657.89 226.216C1653.93 252.933 1657.28 279.464 1657.28 305.592" stroke="black" stroke-width="30" stroke-linecap="round"/>
<path d="M1753.08 97.5728C1742.14 100.853 1726.97 134.214 1720.84 144.103C1711.51 159.162 1705.54 177.951 1692.86 190.634C1687.05 196.447 1680.66 201.308 1674.92 207.056C1670.73 211.241 1670.76 218.106 1665.49 220.742" stroke="black" stroke-width="30" stroke-linecap="round"/>
<path d="M1706.54 193.371C1715 217.047 1733.92 243.1 1733.92 268.641C1733.92 279.666 1742.13 289.447 1742.13 300.117" stroke="black" stroke-width="30" stroke-linecap="round"/>
<path d="M1794.13 130.418C1794.13 151.744 1790.3 173.439 1792.76 194.588C1794.64 210.735 1796.4 229.659 1792.76 245.68C1788.54 264.264 1788.66 291.699 1788.66 311.066" stroke="black" stroke-width="30" stroke-linecap="round"/>
<path d="M1796.87 130.418C1811.33 130.746 1823.68 131.864 1837.92 130.57C1849.95 129.477 1861.96 130.269 1873.51 133.155" stroke="black" stroke-width="30" stroke-linecap="round"/>
<path d="M1802.34 218.005C1819.73 218.005 1837.42 219.501 1854.35 215.268" stroke="black" stroke-width="30" stroke-linecap="round"/>
<path d="M1788.66 311.065C1812.67 311.065 1836.19 309.53 1859.82 305.591" stroke="black" stroke-width="30" stroke-linecap="round"/>
<path d="M2002.59 155.442C1998.93 122.546 1959.94 121.451 1941 140.388C1914.33 167.062 1935.75 192.638 1967 200.452C1984.78 204.895 2004.87 214.705 2010.19 234.818C2016.7 259.402 2010.2 281.77 1988.29 294.425C1966.72 306.892 1954.62 303.723 1936.9 290.168C1922.6 279.234 1922.63 258.296 1915 243.029" stroke="black" stroke-width="30" stroke-linecap="round"/>
</svg>
