<svg width="104" height="124" viewBox="0 0 104 124" fill="none" xmlns="http://www.w3.org/2000/svg">
<path d="M97.1772 81.3154C91.5998 94.7583 84.4371 111.25 69.3546 116.277C52.375 121.937 35.0161 107.527 22.3643 98.0383" stroke="black" stroke-width="12" stroke-linecap="round"/>
<path d="M66.3714 30.2662C66.127 34.1761 65.126 38.1912 65.8824 42.0993C66.4025 44.7865 69.3904 52.8535 71.9457 46.8913C74.6152 40.6624 73.3139 32.6516 68.1317 28.5059" stroke="black" stroke-width="12" stroke-linecap="round"/>
<path d="M25.0049 40.8281C25.0049 46.8209 24.9955 57.84 33.4152 59.1157C37.5811 59.7469 36.622 42.2714 29.4056 40.8281" stroke="black" stroke-width="12" stroke-linecap="round"/>
<path d="M29.5402 19.1403C25.6274 18.6186 21.903 16.8514 17.9216 16.7741C12.7284 16.6733 9.93272 20.1823 6.60645 23.5086" stroke="black" stroke-width="12" stroke-linecap="round"/>
<path d="M54.1123 14.2261C59.659 7.65222 69.6697 7.57184 77.5921 6.58154" stroke="black" stroke-width="12" stroke-linecap="round"/>
<path d="M59.5723 38.7979C63.2215 45.7094 67.8637 51.9166 71.7065 58.698C72.7469 60.5339 78.3559 67.5723 75.6501 69.3761C70.9098 72.5364 65.2201 74.1499 60.6643 77.5667" stroke="black" stroke-width="12" stroke-linecap="round"/>
</svg>
